<svg id="svg" xmlns="http://www.w3.org/2000/svg" xmlns:xlink="http://www.w3.org/1999/xlink" width="400" height="400" viewBox="0, 0, 400,400" version="1.1"><g id="svgg"><path id="path0" d="M175.000 1.109 C 22.418 22.039,-51.525 194.697,38.869 318.976 C 109.176 415.639,251.681 427.993,338.153 344.922 C 453.332 234.273,400.273 41.172,244.652 4.635 C 226.906 0.469,192.403 -1.278,175.000 1.109 M231.665 80.795 C 260.034 94.816,248.105 135.125,216.084 133.445 C 193.130 132.240,180.125 108.875,192.278 90.676 C 200.647 78.143,217.662 73.875,231.665 80.795 M199.443 161.295 C 207.343 162.704,214.391 166.071,218.615 170.456 C 230.644 182.940,230.592 194.948,218.320 237.623 C 203.043 290.753,203.711 299.551,223.103 300.616 C 228.886 300.934,237.544 299.490,243.070 297.287 C 244.375 296.767,243.486 302.732,241.469 308.039 C 240.633 310.236,219.298 318.571,209.213 320.640 C 192.015 324.167,174.495 320.595,165.823 311.793 C 153.448 299.233,153.583 288.194,166.670 242.188 C 179.121 198.415,179.742 188.236,170.257 183.400 C 166.051 181.255,154.050 181.508,146.514 183.901 C 143.275 184.930,140.627 185.545,140.629 185.269 C 140.632 184.992,140.961 183.535,141.361 182.031 C 141.760 180.527,142.469 177.826,142.935 176.028 C 145.044 167.896,182.170 158.216,199.443 161.295 " stroke="none" fill="#000000" fill-rule="evenodd"></path></g></svg>