<svg id="svg" xmlns="http://www.w3.org/2000/svg" xmlns:xlink="http://www.w3.org/1999/xlink" width="400" height="400" viewBox="0, 0, 400,400" version="1.1"><g id="svgg"><path id="path0" d="M189.453 1.056 C 179.758 4.261,181.614 2.530,93.128 90.898 C -3.219 187.116,1.029 182.251,0.195 197.305 C -1.043 219.660,12.975 235.288,35.987 237.208 L 42.112 237.718 42.348 301.476 L 42.584 365.234 44.630 370.501 C 50.355 385.236,60.297 394.682,74.339 398.727 C 78.146 399.824,83.930 400.000,116.216 400.000 L 153.675 400.000 156.330 398.227 C 161.924 394.490,161.716 396.665,161.722 341.797 C 161.728 283.598,161.759 283.404,171.705 277.557 L 175.391 275.391 200.061 275.391 L 224.730 275.391 228.550 277.752 C 238.284 283.769,238.281 283.748,238.281 342.655 C 238.281 395.529,238.123 393.504,242.566 397.656 L 244.656 399.609 282.254 399.827 C 307.433 399.972,321.221 399.760,323.998 399.183 C 334.782 396.945,347.245 387.446,352.151 377.725 C 357.647 366.834,357.333 371.234,357.629 301.074 L 357.896 237.694 364.300 237.142 C 386.295 235.245,399.552 221.294,399.591 200.000 C 399.624 182.174,408.113 192.178,307.969 92.018 L 222.266 6.302 216.016 3.383 C 208.848 0.035,195.958 -1.094,189.453 1.056 " stroke="none" fill="#000000" fill-rule="evenodd"></path></g></svg>