<svg id="svg" xmlns="http://www.w3.org/2000/svg" xmlns:xlink="http://www.w3.org/1999/xlink" width="400" height="400" viewBox="0, 0, 400,400"><g id="svgg"><path id="path0" d="M133.594 87.149 C 115.335 91.059,103.152 102.091,91.218 125.519 L 84.785 138.147 81.039 134.644 C 74.309 128.348,70.205 127.001,56.809 126.688 C 40.291 126.302,38.289 127.958,38.284 142.017 C 38.279 156.536,42.324 161.470,55.017 162.425 L 61.208 162.891 56.683 165.890 C 47.324 172.093,40.835 179.700,35.622 190.578 C 30.640 200.973,30.354 203.711,30.630 238.315 L 30.875 269.141 33.084 274.743 C 34.298 277.825,36.492 281.748,37.958 283.461 L 40.625 286.577 40.625 295.869 C 40.625 307.063,42.299 311.558,47.879 315.344 L 51.172 317.578 75.457 317.578 L 99.743 317.578 102.971 315.341 C 109.077 311.110,110.156 307.480,110.156 291.183 C 110.156 277.656,110.213 277.155,111.914 275.688 C 114.396 273.549,285.076 274.314,288.061 276.478 C 289.736 277.692,289.795 278.196,289.819 291.448 C 289.848 307.525,290.961 311.181,297.097 315.344 L 300.391 317.578 324.676 317.578 L 348.962 317.578 352.189 315.341 C 357.703 311.520,359.375 306.990,359.375 295.869 L 359.375 286.577 362.042 283.461 C 363.508 281.748,365.702 277.825,366.916 274.743 L 369.125 269.141 369.370 238.315 C 369.646 203.711,369.360 200.973,364.378 190.578 C 359.080 179.523,353.171 172.636,343.025 165.691 L 337.222 161.719 343.245 161.719 C 356.796 161.719,361.671 156.332,361.702 141.326 C 361.731 127.285,359.704 125.622,342.969 125.953 C 329.618 126.217,325.393 127.658,318.884 134.166 L 315.090 137.960 308.740 125.425 C 296.927 102.107,284.502 90.963,266.016 87.106 C 258.151 85.465,141.281 85.503,133.594 87.149 M264.340 99.676 C 279.590 103.610,286.582 110.502,298.337 133.183 C 303.119 142.409,307.031 150.143,307.031 150.370 C 307.031 150.596,258.838 150.781,199.935 150.781 C 141.032 150.781,92.956 150.495,93.099 150.145 C 105.320 120.309,118.845 104.231,135.584 99.639 C 141.819 97.928,257.696 97.962,264.340 99.676 M349.219 142.813 C 349.219 149.220,349.221 149.219,335.346 149.219 L 323.349 149.219 324.761 146.789 C 328.310 140.676,333.046 138.458,342.773 138.352 L 349.219 138.281 349.219 142.813 M68.041 140.880 C 69.935 141.879,72.674 144.252,74.127 146.153 L 76.770 149.609 64.858 149.826 C 50.828 150.080,50.781 150.059,50.781 143.654 L 50.781 139.063 57.690 139.063 C 63.413 139.063,65.188 139.374,68.041 140.880 M301.675 170.145 C 295.466 179.379,288.484 188.074,281.111 195.754 C 273.849 203.318,273.974 202.556,279.157 207.674 L 283.313 211.779 289.921 204.913 C 298.804 195.682,306.558 185.914,313.437 175.290 C 320.241 164.781,318.336 165.113,329.921 172.413 C 354.050 187.616,357.425 195.508,357.417 236.719 C 357.409 278.563,357.045 279.156,330.859 280.055 L 315.234 280.591 302.770 271.545 L 290.305 262.500 254.332 262.499 C 234.547 262.499,193.926 262.284,164.063 262.022 L 109.766 261.546 97.284 270.617 L 84.803 279.688 69.316 279.688 C 49.629 279.688,48.074 279.005,44.405 268.750 C 42.169 262.500,41.577 213.839,43.635 205.469 C 47.053 191.566,54.537 182.212,70.079 172.415 C 81.588 165.161,80.028 165.112,84.899 172.875 C 91.311 183.094,100.003 194.260,108.648 203.382 L 116.645 211.820 120.822 207.695 C 126.029 202.553,126.153 203.320,118.889 195.754 C 111.516 188.074,104.534 179.379,98.325 170.145 L 93.710 163.281 200.000 163.281 L 306.290 163.281 301.675 170.145 M58.494 212.999 C 51.746 217.304,51.214 237.792,57.652 245.444 C 61.882 250.471,63.489 250.745,88.807 250.764 L 111.598 250.781 111.201 244.727 C 110.245 230.157,104.158 220.503,92.208 214.605 C 85.908 211.496,62.591 210.385,58.494 212.999 M311.551 212.961 C 298.434 216.996,289.830 229.008,288.799 244.727 L 288.402 250.781 311.193 250.764 C 336.511 250.745,338.118 250.471,342.348 245.444 C 348.855 237.710,348.236 217.049,341.375 212.997 C 338.466 211.278,317.105 211.252,311.551 212.961 M84.454 225.121 C 89.502 226.837,97.656 234.613,97.656 237.711 C 97.656 238.025,91.020 238.281,82.908 238.281 C 65.576 238.281,66.179 238.574,65.745 229.970 L 65.454 224.219 73.626 224.219 C 78.121 224.219,82.993 224.625,84.454 225.121 M334.255 229.970 C 333.821 238.574,334.424 238.281,317.092 238.281 C 308.980 238.281,302.344 238.025,302.344 237.711 C 302.344 236.301,307.505 229.782,309.978 228.068 C 314.444 224.974,317.131 224.341,326.062 224.278 L 334.546 224.219 334.255 229.970 M132.031 236.719 L 132.031 242.969 198.828 242.969 L 265.625 242.969 265.625 236.719 L 265.625 230.469 198.828 230.469 L 132.031 230.469 132.031 236.719 M97.656 294.866 C 97.656 306.282,99.364 305.469,75.391 305.469 C 52.084 305.469,53.125 305.835,53.125 297.641 L 53.125 292.269 70.963 292.033 L 88.800 291.797 92.642 289.326 C 94.755 287.967,96.748 286.824,97.070 286.787 C 97.393 286.749,97.656 290.385,97.656 294.866 M304.616 288.586 C 307.784 292.404,312.669 293.163,330.218 292.564 L 346.875 291.997 346.875 297.505 C 346.875 305.857,347.959 305.469,324.609 305.469 C 300.709 305.469,302.344 306.219,302.344 295.257 C 302.344 287.678,302.786 286.381,304.616 288.586 " stroke="none" fill="#fff" fill-rule="evenodd"></path></g></svg>