<svg version="1.2" xmlns="http://www.w3.org/2000/svg" viewBox="0 0 400 400" width="400" height="400">
	<title>New Project</title>
	<style>
		.s0 { fill: #80371c } 
		.s1 { fill: #ffffff } 
	</style>
	<path id="Background" class="s0" d="m199.5 393c-107 0-193.5-86.5-193.5-193.5 0-107 86.5-193.5 193.5-193.5 107 0 193.5 86.5 193.5 193.5 0 107-86.5 193.5-193.5 193.5z"/>
	<path id="path0" fill-rule="evenodd" class="s1" d="m261.5 86.9c5.9 1.5 10.6 4.2 15.2 8.9 5.8 5.7 6.9 8 14.3 30.3 7.2 21.9 6.1 20 10.3 17.7 7.9-4.4 15.1-0.9 14.6 7.1-0.3 4.1-1.6 5.7-7.4 9-2.7 1.5-5 2.8-5.1 2.8-0.5 0.5 1.3 4.5 2.3 4.9 11.9 5.4 20.5 21.9 20.2 38.6l-0.2 8.1-1.8-2.6c-8.1-11.8-24.6-22.6-40.3-26.4-43.3-10.4-85.9 21.6-87.6 65.8l-0.3 7.8h-55l-0.7 3.3c-7.3 34.4-58.2 34.6-66.3 0.2-1.2-4.9-0.8-63.7 0.5-68.7 2.6-10.3 10.2-20.8 18.5-25.5 1.5-0.9 3.6-4.5 2.9-5 0 0-2.1-1.2-4.6-2.6-8.6-4.9-10.6-8.5-7.8-14.3 2.4-5.1 7.9-6 14.1-2.4 2 1.2 3.8 2.2 3.9 2.2 0.2 0 3.2-8.7 6.7-19.3 3.5-10.7 7.3-21.1 8.3-23.1 3.9-7.5 12.8-14.6 21.2-16.8 4.5-1.2 119.5-1.2 124.1 0zm-5.3 16.3l-55.1-0.1c-30.2 0-56.1 0.1-57.4 0.3-4.8 0.9-10 4.5-12.1 8.5-0.6 1-16.9 49.3-16.9 49.9 0 0.1 38.2 0.1 84.9 0.1 46.6 0 84.8 0 84.8-0.1 0-1-16.6-49.3-17.3-50.6-1.7-2.7-4.4-5-7.8-6.5zm-129.7 101.3c-7.5 1.9-8.8 11.2-2.2 15.1 2.8 1.6 21.4 1.6 24.2 0 5.7-3.4 5.7-10.9 0-14.2-2-1.2-18.2-1.8-22-0.9zm154.5 1.4c31 9.2 45.5 45.2 29.5 73.2l-2.4 4.2 8.7 8.7c11 11.1 12.1 14.1 6.9 19.3-5.1 5.2-8.1 4.1-19.3-7l-8.7-8.6-4.2 2.4c-18.9 10.8-43.2 7.9-59.2-7-29.4-27.3-16.2-76.8 22.9-86 6.5-1.6 19.3-1.2 25.8 0.8z"/>
</svg>