<svg version="1.2" xmlns="http://www.w3.org/2000/svg" viewBox="0 0 400 400" width="400" height="400">
	<title>New Project</title>
	<style>
		.s0 { fill: #80371c } 
		.s1 { fill: #ffffff } 
	</style>
	<path id="Background" class="s0" d="m199.5 393c-107 0-193.5-86.5-193.5-193.5 0-107 86.5-193.5 193.5-193.5 107 0 193.5 86.5 193.5 193.5 0 107-86.5 193.5-193.5 193.5z"/>
	<path id="path0" fill-rule="evenodd" class="s1" d="m96.1 83h121.4l0.1 20.1c0 27.2-3 24.2 24.2 24.4l20.4 0.1v83.6l-5.2 0.5c-6.5 0.7-12.6 2.3-18.3 4.7-3.7 1.6-4.5 1.8-5.5 1.4-2-0.9-111.8-0.7-113.6 0.2-3.7 1.9-4 6.5-0.5 9.3l1.2 0.9h50.2c27.6 0 50.2 0.1 50.2 0.3 0 0.1-0.9 1.3-2.1 2.6-3.2 3.6-6.2 8.1-8.6 12.8l-2.1 4.3h-43.3c-40.3 0-43.4 0.1-44.9 0.8-3.1 1.6-4 5.8-1.7 8.2 2.2 2.5 0.7 2.4 45.3 2.4h41.5l-0.4 2.4c-0.4 3.2-0.4 11.3 0.1 14.6l0.3 2.6h-41.7c-40.4 0-41.7 0-43.4 0.9-4.2 2.1-4 8 0.2 9.8 1.3 0.6 8.5 0.7 44.8 0.7h43.2l1.8 3.7c3.4 7.2 8.2 13.4 14.3 18.8l3.1 2.7-64.5 0.2c-69.3 0.1-66.8 0.2-68.9-1.6-2.9-2.5-2.7 6.1-2.7-115.2v-111.1l1-1.5c0.6-0.8 1.8-2 2.6-2.6zm132.3 0h1.1c1.6 0 32.3 30.2 32.5 32l0.2 1.3h-33.8zm-57.3 34.2v3.3l-2.6 1.3c-13.1 6.9-13.1 27.2 0.2 34.1 1.7 0.9 4.5 1.9 6.3 2.4 6.1 1.4 7.9 3.4 7.9 8.6 0 9.6-11.6 11-13 1.6-0.7-4.8-4.2-7-8.1-5.2-6.4 3-1.8 16.6 6.9 20.7l2.4 1.1v3.3c0 10 10.4 10.5 10.8 0.5l0.2-3.8 2.5-1.3c15.8-8.2 11.8-31.6-6.2-36.2-6.8-1.7-8.5-3.5-8.5-8.9 0-3.6 0.6-4.9 3.1-6.7 3.5-2.6 9.9 0.5 9.9 4.8 0 3.7 2.9 6.4 6.3 6.1 8.7-0.9 5.1-16.3-5-21.2l-2.1-1-0.2-3.8c-0.1-3.6-0.2-4-1.5-5.3-4.2-4.2-9.3-1.1-9.3 5.6zm109 109c37.1 15.6 38 68.8 1.5 85.7-20.4 9.5-46.1 2.4-58.4-16.2-18.9-28.3-2.7-66.6 30.7-72.5 7.4-1.3 19.2 0.1 26.2 3zm-13.7 37.6l-9.2 9.2-5-4.9c-6.3-6.1-9.2-6.9-11.8-3.1-2.3 3.4-1.4 5 7.2 13.5 10 9.8 8.2 10.2 23.3-4.7 6.6-6.4 12.3-12.2 12.7-12.8 1.5-2.1 0.7-5.5-1.5-7.1-3.2-2.2-4.3-1.4-15.7 9.9z"/>
</svg>