<svg version="1.2" xmlns="http://www.w3.org/2000/svg" viewBox="0 0 400 400" width="400" height="400">
	<title>New Project</title>
	<style>
		.s0 { fill: #80371c } 
		.s1 { fill: #ffffff } 
	</style>
	<path id="Background" class="s0" d="m199.5 393c-107 0-193.5-86.5-193.5-193.5 0-107 86.5-193.5 193.5-193.5 107 0 193.5 86.5 193.5 193.5 0 107-86.5 193.5-193.5 193.5z"/>
	<path id="path0" fill-rule="evenodd" class="s1" d="m201.6 77.4c0.3 0.2 3.3 5.7 6.5 12.3 4.7 9.4 6.2 11.9 7.2 12.1 1.4 0.3 23.7 3.7 24.5 3.7 0.2 0 0.8 0.3 1.3 0.8 2 2 1.2 3.2-8.6 12.8-5.2 5.1-9.5 9.6-9.5 9.9 0 0.4 0.9 5.9 2 12.1 3.2 19 3.6 18.7-13.5 9.8l-11.4-5.9-11.4 5.9c-17.1 8.9-16.7 9.1-13.5-9.9 1.1-6.2 2-11.6 2-11.9 0-0.4-4.3-4.9-9.5-10-9.8-9.6-10.6-10.8-8.6-12.8 0.5-0.5 1.1-0.8 1.4-0.8 1 0 23.7-3.4 24.7-3.7 0.6-0.2 3.2-4.8 6.9-12.2 3.2-6.5 6.2-12 6.5-12.2 0.8-0.5 2.2-0.5 3 0zm-74.1 33.2c7.2 14.1 4.7 12.3 19.3 14.4 18.4 2.7 18.3 2.3 5.2 15.4l-9.6 9.6 2.1 12.3c3.3 19.3 3.7 19-13 10.2l-11.8-6.2-11.8 6.2c-16.7 8.8-16.3 9.1-13-10.2l2.1-12.2-9.6-9.6c-13.2-13.2-13.3-12.8 4.9-15.4 6.9-1 12.7-2 13-2.1 0.2-0.2 3-5.4 6.1-11.6 3.1-6.2 5.9-11.6 6.2-12 2.2-2.7 3.7-0.9 9.9 11.2zm160.9 0c7.1 14.1 4.7 12.3 19.2 14.4 18.5 2.7 18.4 2.3 5.2 15.4l-9.5 9.6 2.1 12.3c3.2 19.3 3.6 19-13 10.2l-11.8-6.2-11.9 6.2c-16.6 8.8-16.3 9.1-13-10.2l2.1-12.2-9.6-9.6c-13.1-13.2-13.3-12.8 5-15.5 6.9-1 12.7-1.9 13-2 0.2-0.2 2.9-5.4 6-11.6 3.1-6.2 5.9-11.6 6.3-12 2.1-2.7 3.7-0.9 9.9 11.2zm-66.4 75.7c4.1 8.6 0.7 27.1-8 44.4-0.9 1.7-1.6 3.3-1.6 3.5 0 0.1 11.1 0.3 24.6 0.3 29.2 0 29.5 0 33.3 7.4 2.2 4.3 1.9 6.5-5.2 39.4-7.8 36.4-8.1 37.2-16.1 41l-3.4 1.5h-29.4c-40.1 0-42.9-0.6-56.7-13.6l-4.5-4.2h-13v-71.5h8.8l3.8-2.9c15.1-11.5 26.4-27.8 33.7-48.8 2.5-7 3.7-8.8 6.5-10.1 8.4-3.7 22.4 3.2 27.2 13.6zm-111.3 39.2c14.9 0 15.7 0.1 16.8 1.2 1.7 1.7 1.7 85.3 0 87.1-1.1 1.1-1.9 1.1-16.8 1.1-14.9 0-15.7 0-16.7-1.1-1.1-1.1-1.1-1.9-1.1-43.6 0-41.7 0-42.4 1.1-43.5 1-1.1 1.8-1.2 16.7-1.2z"/>
</svg>