<svg version="1.2" xmlns="http://www.w3.org/2000/svg" viewBox="0 0 400 400" width="400" height="400">
	<title>New Project</title>
	<style>
		.s0 { fill: #80371c } 
		.s1 { fill: #ffffff } 
	</style>
	<path id="Background" class="s0" d="m199.5 393c-107 0-193.5-86.5-193.5-193.5 0-107 86.5-193.5 193.5-193.5 107 0 193.5 86.5 193.5 193.5 0 107-86.5 193.5-193.5 193.5z"/>
	<path id="path0" fill-rule="evenodd" class="s1" d="m105.9 84.1v2.7h60.9 61l1.9 1.1c6 3.4 6 19.9 0 23.4l-1.9 1h-121.9v2.7c0 4-2.2 6.3-5.8 5.9-2.2-0.2-2.9-0.6-12.4-8.6-11.9-9.9-11.7-9.6-11.7-12.7 0-1.6 0.3-2.8 0.8-3.5 1.1-1.3 20.4-17.3 21.4-17.7 4-1.5 7.7 1.2 7.7 5.7zm205.7 45.4c11.9 10 12.8 11.2 11.2 15.4-0.2 0.7-18 15.8-20.9 17.8-3.9 2.7-8.7-0.2-8.7-5.2v-2.2h-60.2c-63.9 0-62.4 0-64.9-2.2-3.9-3.5-4.2-17.2-0.5-21.1 2.7-2.9-0.9-2.8 65-2.8h60.6v-2.5c0-3 0.8-4.5 3.1-5.5 3.3-1.4 4-1 15.3 8.3zm-60.9 68.3c16.7 8.2 16.8 8.2 27.6 8.2h7.1l0.3 1.8c0.1 1 1.5 13.7 3.1 28.4 1.6 14.6 3.1 27.2 3.2 28.1l0.3 1.5h-29.3v-3.5c-0.1-8.2-1-9-29.2-28.8-32-22.3-29.2-22.3-47.3-0.7-12.5 14.9-13.4 15.7-18.2 15.7-4.9 0-8.3-2.3-8.3-5.6 0-1.9 15.7-25.5 22.2-33.5 5.3-6.4 29.9-19.2 38.9-20.3 8.6-1 12.1 0.1 29.6 8.7zm-55.5-7.9c1.1 0.5 1 0.6-2.9 2.6-6.1 3-10.2 5.8-13.6 9.2-3.4 3.4-25.3 34.3-26.3 37.1-4.4 12.2 12.6 22.7 24.9 15.3 2.8-1.6 4.5-3.4 15.3-16.3 10.7-12.8 10.8-13 13.4-13 2.3 0 45.8 30.4 47.7 33.4 4.6 7.1-2 13.8-9.7 9.8-2.5-1.3-3.4-1.2-5.2 0.4-1.1 1-1.4 2.8-0.8 4.4 0.1 0.4 1.4 1.6 2.8 2.7 9.3 7 1.9 17.9-7.7 11.3-3.6-2.4-5.1-2.7-6.8-1-1.6 1.7-1.6 4.1 0.1 5.7 6.4 6 0 15.6-7.7 11.5-5.1-2.8-9 1.7-5.2 6.1 7.1 8-1.9 16.3-10.3 9.5l-1.3-1.1 0.8-2.7c2.8-9.6-4.2-18.7-14.5-18.8-4.3-0.1-4.3-0.1-4.8-1.5-2.6-7.1-10.5-11.6-17.3-9.7-1 0.3-1.3 0.2-1.3-0.4 0-5.3-7.6-11.1-14.6-11.1h-4.2l-0.8-2.2c-4.3-11.1-19.9-12.5-26.3-2.2-0.9 1.4-1.7 2.6-1.7 2.7-0.2 0.3-10.3-4-10.3-4.3 0-0.2 1.5-14 3.3-30.7 1.9-16.7 3.4-30.4 3.4-30.5 0 0 6.2-0.1 13.7-0.1 17.8 0 16.2 0.4 33.6-8.2 8.1-4 16.1-7.6 17.6-8 3.3-0.8 14.6-0.7 16.7 0.1zm-115.4 7.4h11.6c12.5 0 13.8 0.2 14.4 2.4 0.1 0.7-1.3 15.8-3.3 33.7l-3.6 32.4h-19.1zm227.7 0.1l11.7-0.1v68.6h-19l-3.6-32.5c-3.7-33.2-3.8-34.6-1.9-35.5 0.7-0.3 5.4-0.5 12.8-0.5zm-169.3 79.8c-0.6 8.8-10.4 13.5-14.5 6.9-2.3-3.8 0.3-11.2 4.6-13.4 5.1-2.5 10.2 0.9 9.9 6.5zm18.9 13c-2.6 8.7-11.1 11.4-14.7 4.6-1.7-3.3 0.9-10.7 4.4-12.8 5.3-3 12 2.3 10.3 8.2zm19.1 10c-0.7 8.1-9.5 12.6-14 7.1-3.2-3.7-0.6-12 4.3-14.2 4.8-2.2 10.2 1.7 9.7 7.1zm15.6 4.4c7.6 3.9 1.2 18.6-7.1 16.3-6.3-1.7-6.6-10.6-0.5-15.7 1.6-1.4 5.5-1.7 7.6-0.6z"/>
</svg>