<svg version="1.2" xmlns="http://www.w3.org/2000/svg" viewBox="0 0 400 400" width="400" height="400">
	<title>New Project</title>
	<style>
		.s0 { fill: #80371c } 
		.s1 { fill: #ffffff } 
	</style>
	<path id="Background" class="s0" d="m199.5 393c-107 0-193.5-86.5-193.5-193.5 0-107 86.5-193.5 193.5-193.5 107 0 193.5 86.5 193.5 193.5 0 107-86.5 193.5-193.5 193.5z"/>
	<path id="path0" fill-rule="evenodd" class="s1" d="m216 156.1c-14.7 47-75.7 60.6-108.9 24.4-34.1-37.1-14.5-97.3 34.9-107.2 47.7-9.6 88.7 36.2 74 82.8zm-65.8-62.9c-0.5 0.4-0.8 1.7-1 4.9l-0.2 4.4-4.6 2.3c-7.2 3.5-10 6.8-11.4 13.4-2.2 10.4 2.6 16.6 17.9 23.2 9 3.8 10.8 5.4 10.8 9.5 0 7.6-12.6 9.5-24.1 3.7-1.6-0.9-2.1-0.9-2.6-0.4-0.8 0.9-3.3 9.8-2.9 10.7 0.3 0.9 5.3 3 9.4 4 7.3 1.7 6.5 0.9 6.8 5.8 0.3 5.5 0.5 5.7 5.4 5.7 5.2 0 5.5-0.3 5.5-5.5 0-4.9 0.3-5.4 4.1-6.8 14.5-5.3 18.3-22.3 7.2-32.3-2.4-2.1-3.9-3-16.4-8.7-14-6.6-3.6-17 11.4-11.4 5.9 2.2 5.6 2.5 7.7-4.9 1.5-5 0.5-5.9-8.7-7.8-4.3-0.9-4.8-1.5-4.8-5.8 0-2.9-0.1-3.5-0.9-3.9-1.2-0.7-7.5-0.7-8.6-0.1zm116.4 51.7c-2.9 5.8-3.7 9.2-3.7 14 0.1 6.3 0.5 7.2 7.4 13.9 10.2 10.1 16.7 20.1 20.9 32.4 0.3 0.7 1 0.9 4.7 0.9 12.1 0 13.4 2.1 13.4 23.2v15.5l-1.5 2.5c-2.3 3.6-4.7 4.7-10.8 4.7h-4.8l-1.4 3.9c-4 11.4-10.6 21.1-22.6 33.2-11.3 11.6-13.6 16.4-13.6 29.2v6.2l-3.4 3.4h-19.2c-23.4 0-22.8 0.2-22.8-8.6v-4.2h-10.2c-5.5 0-11.4-0.1-12.9-0.4l-2.9-0.4v4.3c0 9.6 0.7 9.3-22.8 9.3h-19.1l-1.6-1.4c-1.5-1.4-1.6-1.6-2-6.8-1-12.8-4.3-20.4-13.1-30.5-23.2-26.4-30.1-58.8-18.9-87.6 1.6-4.2 1.1-4.2 6.2-0.7 43.5 29.2 102.5 6.9 117.2-44.4 3.8-13.3 12.9-20.9 28.8-24 10.7-2.2 13.7 2.1 8.7 12.4zm-13.5 47.8c-9.1 4.8-2.3 18.8 6.9 14.3 6.2-3.1 6.3-11.2 0.1-14.3-2.8-1.4-4.3-1.4-7 0z"/>
</svg>