<svg version="1.2" xmlns="http://www.w3.org/2000/svg" viewBox="0 0 400 400" width="400" height="400">
	<title>New Project</title>
	<style>
		.s0 { fill: #80371c } 
		.s1 { fill: #ffffff } 
	</style>
	<path id="Background" class="s0" d="m199.5 393c-107 0-193.5-86.5-193.5-193.5 0-107 86.5-193.5 193.5-193.5 107 0 193.5 86.5 193.5 193.5 0 107-86.5 193.5-193.5 193.5z"/>
	<path id="path0" fill-rule="evenodd" class="s1" d="m200.3 64c3.1 0 3.9 1.5 3.9 7.4v5.2l2.2 1c10.5 4.8 10.5 20.9 0 25.7l-2.2 0.9v10.2c0 11.5 0 11.5-4.5 12.2-8.6 1.3-12.8 10.7-7.6 16.8l1.3 1.4 2.9-1.4c3.6-1.9 4.6-1.9 8 0l2.8 1.5 1.3-1.5c1.3-1.5 2.5-4.7 2.5-6.9 0-3.4 5-4.8 7.2-2 1.9 2.5 0.4 10.3-2.6 13.6-1 1.1-7.6-2.7 59.4 33.6 26.4 14.3 48.3 26.3 48.6 26.5 1.5 1.3-1.2 1.4-10 0.3l-9.4-1.2-34.2-18.6c-18.9-10.2-35.4-19.1-36.8-19.9l-2.5-1.3 2.3 2.1c1.3 1.1 9.8 8.7 18.8 16.8 15.7 14 17.8 16.2 15.5 16.2-5.1-0.2-12-1.6-13.4-2.9-0.8-0.8-12.2-11-25.3-22.7l-23.8-21.2-4.5-0.1-4.4-0.2-19.6 16.6c-18 15.4-19.7 16.6-21.2 16.4-1-0.2-3.2-0.5-4.9-0.7-4.7-0.5-4.5-0.8 7.8-11.2 6-5.1 11.6-9.9 12.3-10.6 1.5-1.4-0.6-0.4-36.7 17.1l-20.9 10.1-14.1 3c-22.9 4.9-25.6 6.7 33.9-22 26.8-12.9 49.6-24 50.7-24.5l2-1-1.7-3.5c-5.2-10.4 0.5-22.7 12-26.3 0.9-0.3 1-1.2 1-7.5v-7.2l-2.2-0.9c-10.5-4.8-10.6-20.9-0.1-25.7l2.3-1v-5.2c0-4.4 0.1-5.3 1.1-6.3 0.6-0.6 1.9-1.1 2.8-1.1zm0 22.8c-3.4 0-4.6 5-1.5 6.7 3.4 1.9 6.9-3.5 3.6-5.8-0.7-0.5-1.6-0.9-2.1-0.9zm-54.6 107.7c1.1 0.2 20.8 2.7 43.7 5.6 23 2.9 64.6 8.1 92.6 11.6 27.9 3.6 51 6.5 51.3 6.5 0.3 0 0.6 18.2 0.6 46.7 0 30.1-0.2 46.8-0.6 46.8-0.3 0-16.3 1.9-35.5 4.4-87 11-154.3 19.5-154.6 19.5-0.4 0-0.3-140.6 0.2-141 0.2-0.3 1.2-0.3 2.3-0.1zm-10.8 1.6c0.7 0.2 1.1 136.7 0.4 137.3-0.4 0.4-30.6-5.7-31.8-6.4-0.9-0.6-0.9-123.6 0.1-124.2 0.3-0.2 7.4-1.9 15.7-3.6 8.3-1.8 15.3-3.1 15.6-3.1zm-41.3 8.8l2.1-0.1v120.2h-1.6c-0.8 0-7.3-1.2-14.3-2.7l-12.8-2.7v-109.4l12.2-2.6c6.8-1.5 13.2-2.7 14.4-2.7zm61.6 60v53.8l1.4 1.3c1.2 1.1 1.7 1.2 4.6 0.9 27.2-3.1 158.2-20.1 159.1-20.7 1.8-1.1 1.9-2.3 1.9-35.3 0-33-0.1-34.2-1.9-35.3-0.8-0.5-27.9-4.2-74.4-10-40.2-5.1-76-9.6-79.5-10.1-12.7-1.6-11.2-9-11.2 55.4zm14.2-47.8l5.3 0.7-0.1 47.1-0.2 47-5.2 0.8c-2.9 0.4-5.6 0.6-6 0.4-0.8-0.3-1.2-95.4-0.4-96.2 0.5-0.5 0.5-0.5 6.6 0.2zm14.7 1.8c0.5 0.2 2.4 0.4 4.2 0.6 1.9 0.2 4.2 0.5 5.2 0.7l1.8 0.3v44.5c0 24.4-0.2 44.4-0.4 44.4-0.3 0.1-3 0.4-6 0.8-3.8 0.5-5.8 0.6-6.3 0.2-1-0.8-1-90 0-91 0.4-0.4 1-0.6 1.5-0.5zm31.1 4.4c0.5 0.4 0.7 9.4 0.7 41.6 0 32.2-0.2 41.2-0.7 41.6-0.9 0.7-11.4 2-12.1 1.5-0.7-0.4-0.8-85.5-0.2-86.1 0.6-0.7 11.1 0.6 12.3 1.4zm7.9 1h1.5c0.8 0 3.7 0.3 6.4 0.6l4.9 0.6v78.8l-4.9 0.6c-2.7 0.3-5.6 0.6-6.4 0.6h-1.5zm22.8 2.5c0.8 0.1 2.8 0.4 4.5 0.6 1.7 0.2 3.7 0.5 4.6 0.6l1.5 0.3v73.3l-1.8 0.3c-6.5 1.1-10.2 1.4-10.8 0.8-1.1-0.8-1.1-74.5-0.1-75.5 0.4-0.4 1.3-0.6 2.1-0.4zm30.5 4.4c0.5 0.4 0.7 7.8 0.7 33.8 0 25.9-0.2 33.3-0.7 33.8-0.9 0.7-11.3 2-12.1 1.5-0.6-0.4-0.8-70-0.2-70.6 0.7-0.7 11.2 0.6 12.3 1.5zm7.9 0.8l4.2 0.3c2.3 0.2 5.2 0.5 6.4 0.7l2.2 0.4v63.1l-2.2 0.4c-1.2 0.2-4.1 0.5-6.4 0.7l-4.2 0.4zm25.9 3l4.2 0.6v58.7l-4.6 0.7c-3.7 0.5-4.6 0.5-5-0.1-0.5-0.8-0.6-58.3-0.1-59.7 0.4-1 0.2-1 5.5-0.2zm-197.9 2.6l-1.3 1.1v52.5l1.3 1.1c1.7 1.3 3.1 1.3 4.5-0.1 1.1-1.1 1.1-1.8 1.1-27.2 0-25.5 0-26.2-1.1-27.3-1.4-1.4-2.8-1.4-4.5-0.1zm-30 3.8c-1.8 2.3-1.8 44.8 0 47.1 1.4 1.8 3.8 2 5.2 0.5 1.5-1.7 1.4-46.8-0.1-48.2-1.5-1.4-3.7-1.1-5.1 0.6z"/>
</svg>