<svg id="svg" xmlns="http://www.w3.org/2000/svg" xmlns:xlink="http://www.w3.org/1999/xlink" width="400" height="400" viewBox="0, 0, 400,400" version="1.1"><g id="svgg"><path id="path0" d="M252.734 0.869 C 167.185 13.260,117.673 104.929,154.043 183.594 C 161.068 198.788,169.638 210.445,174.943 212.020 C 185.964 215.293,199.951 223.169,210.674 232.140 L 213.145 234.207 239.971 234.573 C 276.566 235.073,284.174 237.649,296.673 253.773 L 298.083 255.592 305.302 253.563 C 402.122 226.340,432.607 105.956,360.447 35.795 C 332.589 8.709,291.220 -4.705,252.734 0.869 M277.111 49.187 C 281.141 51.645,282.264 54.738,282.652 64.453 L 282.995 73.047 287.252 74.924 C 297.796 79.573,303.656 86.152,302.937 92.533 C 301.869 102.007,292.201 105.491,284.051 99.337 C 271.361 89.756,259.375 92.790,259.375 105.582 C 259.375 113.574,262.930 116.507,274.350 117.939 C 308.151 122.177,317.361 165.970,287.914 182.438 L 283.012 185.179 282.656 193.566 C 282.135 205.831,279.124 210.150,271.094 210.150 C 263.019 210.150,260.047 205.844,259.507 193.359 L 259.135 184.766 253.854 182.211 C 239.526 175.281,232.144 163.222,237.984 156.282 C 243.592 149.617,250.134 149.910,257.375 157.152 C 268.380 168.157,282.813 165.690,282.813 152.804 C 282.813 144.577,279.118 141.219,268.679 139.959 C 247.490 137.403,234.293 120.969,236.903 100.391 C 238.203 90.137,246.964 78.161,255.855 74.484 L 259.191 73.104 259.535 64.482 C 260.034 51.975,262.998 47.662,271.094 47.662 C 273.206 47.662,275.608 48.271,277.111 49.187 M126.480 232.466 C 118.935 233.832,109.173 237.379,101.172 241.661 L 94.922 245.006 94.922 317.989 L 94.922 390.972 102.344 392.760 C 112.761 395.269,125.175 397.402,137.500 398.801 C 153.319 400.596,277.269 400.574,286.757 398.774 C 302.544 395.780,319.636 386.676,330.183 375.644 C 335.828 369.741,394.825 290.527,397.195 285.670 C 406.092 267.438,395.358 247.672,376.563 247.672 C 365.296 247.672,363.869 248.795,341.447 275.328 C 339.965 277.081,337.328 280.113,335.587 282.066 C 331.930 286.168,329.550 288.905,323.047 296.487 C 320.469 299.494,318.184 302.129,317.969 302.344 C 317.754 302.559,315.476 305.195,312.906 308.203 C 293.913 330.437,296.117 329.869,230.078 329.532 C 177.968 329.266,180.506 329.580,177.327 323.013 C 175.383 318.996,175.383 316.941,177.327 312.925 C 180.470 306.432,178.604 306.691,225.391 306.250 C 266.423 305.863,266.826 305.844,270.073 304.108 C 287.722 294.675,287.177 269.638,269.141 261.215 C 265.318 259.429,264.724 259.390,241.406 259.377 C 208.555 259.358,205.157 258.651,193.436 249.399 C 174.267 234.267,150.179 228.175,126.480 232.466 M3.463 239.300 L 0.000 242.763 -0.000 317.806 L -0.000 392.849 2.046 395.281 C 5.834 399.783,6.904 400.000,25.270 400.000 C 52.156 400.000,62.915 394.335,69.267 376.836 L 71.094 371.804 71.094 318.056 C 71.094 257.765,71.305 260.177,65.220 251.002 C 57.250 238.982,50.515 236.401,26.314 236.088 L 6.926 235.838 3.463 239.300 " stroke="none" fill="#000000" fill-rule="evenodd"></path></g></svg>